<svg width="78" height="24" viewBox="0 0 78 24" fill="none" xmlns="http://www.w3.org/2000/svg">
<g filter="url(#filter0_d_12_2)">
<path d="M12.1914 11.9268V13H7.21484V11.9268H12.1914ZM7.47461 3.04688V13H6.15527V3.04688H7.47461ZM20.0254 11.9268V13H14.7549V11.9268H20.0254ZM15.0215 3.04688V13H13.7021V3.04688H15.0215ZM19.3281 7.32617V8.39941H14.7549V7.32617H19.3281ZM19.957 3.04688V4.12695H14.7549V3.04688H19.957ZM25.207 8.34473H22.6846L22.6709 7.28516H24.9609C25.3392 7.28516 25.6696 7.22135 25.9521 7.09375C26.2347 6.96615 26.4535 6.78385 26.6084 6.54688C26.7679 6.30534 26.8477 6.01823 26.8477 5.68555C26.8477 5.32096 26.777 5.02474 26.6357 4.79688C26.499 4.56445 26.2871 4.39583 26 4.29102C25.7174 4.18164 25.3574 4.12695 24.9199 4.12695H22.9785V13H21.6592V3.04688H24.9199C25.4303 3.04688 25.8861 3.09928 26.2871 3.2041C26.6882 3.30436 27.0277 3.46387 27.3057 3.68262C27.5882 3.89681 27.8024 4.17025 27.9482 4.50293C28.0941 4.83561 28.167 5.23438 28.167 5.69922C28.167 6.10938 28.0622 6.48079 27.8525 6.81348C27.6429 7.1416 27.3512 7.41048 26.9775 7.62012C26.6084 7.82975 26.1755 7.96419 25.6787 8.02344L25.207 8.34473ZM25.1455 13H22.165L22.9102 11.9268H25.1455C25.5648 11.9268 25.9202 11.8538 26.2119 11.708C26.5081 11.5622 26.7337 11.3571 26.8887 11.0928C27.0436 10.8239 27.1211 10.5072 27.1211 10.1426C27.1211 9.77344 27.055 9.45443 26.9229 9.18555C26.7907 8.91667 26.5833 8.70931 26.3008 8.56348C26.0182 8.41764 25.6536 8.34473 25.207 8.34473H23.3271L23.3408 7.28516H25.9111L26.1914 7.66797C26.6699 7.70898 27.0755 7.8457 27.4082 8.07812C27.7409 8.30599 27.9938 8.59766 28.167 8.95312C28.3447 9.30859 28.4336 9.70052 28.4336 10.1289C28.4336 10.7487 28.2969 11.2728 28.0234 11.7012C27.7546 12.125 27.374 12.4486 26.8818 12.6719C26.3896 12.8906 25.8109 13 25.1455 13ZM36.7051 11.9268V13H31.4346V11.9268H36.7051ZM31.7012 3.04688V13H30.3818V3.04688H31.7012ZM36.0078 7.32617V8.39941H31.4346V7.32617H36.0078ZM36.6367 3.04688V4.12695H31.4346V3.04688H36.6367ZM42.0098 9.09668H39.3506V8.02344H42.0098C42.5247 8.02344 42.9417 7.94141 43.2607 7.77734C43.5798 7.61328 43.8122 7.38542 43.958 7.09375C44.1084 6.80208 44.1836 6.4694 44.1836 6.0957C44.1836 5.75391 44.1084 5.43262 43.958 5.13184C43.8122 4.83105 43.5798 4.58952 43.2607 4.40723C42.9417 4.22038 42.5247 4.12695 42.0098 4.12695H39.6582V13H38.3389V3.04688H42.0098C42.7617 3.04688 43.3975 3.17676 43.917 3.43652C44.4365 3.69629 44.8307 4.05632 45.0996 4.5166C45.3685 4.97233 45.5029 5.49414 45.5029 6.08203C45.5029 6.72005 45.3685 7.26465 45.0996 7.71582C44.8307 8.16699 44.4365 8.51107 43.917 8.74805C43.3975 8.98047 42.7617 9.09668 42.0098 9.09668ZM49.9121 3.92871L46.6172 13H45.2705L49.0645 3.04688H49.9326L49.9121 3.92871ZM52.6738 13L49.3721 3.92871L49.3516 3.04688H50.2197L54.0273 13H52.6738ZM52.5029 9.31543V10.3955H46.9111V9.31543H52.5029ZM62.6338 8.04395V11.6875C62.5107 11.8698 62.3148 12.0749 62.0459 12.3027C61.777 12.526 61.4056 12.722 60.9316 12.8906C60.4622 13.0547 59.8561 13.1367 59.1133 13.1367C58.5072 13.1367 57.9489 13.0319 57.4385 12.8223C56.9326 12.6081 56.4928 12.2982 56.1191 11.8926C55.75 11.4824 55.4629 10.9857 55.2578 10.4023C55.0573 9.81445 54.957 9.14909 54.957 8.40625V7.63379C54.957 6.89095 55.0436 6.22786 55.2168 5.64453C55.3945 5.0612 55.6543 4.56673 55.9961 4.16113C56.3379 3.75098 56.7572 3.44108 57.2539 3.23145C57.7507 3.01725 58.3203 2.91016 58.9629 2.91016C59.724 2.91016 60.3597 3.04232 60.8701 3.30664C61.3851 3.56641 61.7861 3.92643 62.0732 4.38672C62.3649 4.84701 62.5518 5.37109 62.6338 5.95898H61.3145C61.2552 5.59896 61.1367 5.27083 60.959 4.97461C60.7858 4.67839 60.5374 4.44141 60.2139 4.26367C59.8903 4.08138 59.4733 3.99023 58.9629 3.99023C58.5026 3.99023 58.1038 4.07454 57.7666 4.24316C57.4294 4.41178 57.1514 4.65332 56.9326 4.96777C56.7139 5.28223 56.5498 5.66276 56.4404 6.10938C56.3356 6.55599 56.2832 7.05957 56.2832 7.62012V8.40625C56.2832 8.98047 56.3493 9.49316 56.4814 9.94434C56.6182 10.3955 56.8118 10.7806 57.0625 11.0996C57.3132 11.4141 57.6117 11.6533 57.958 11.8174C58.3089 11.9814 58.6963 12.0635 59.1201 12.0635C59.5895 12.0635 59.9701 12.0247 60.2617 11.9473C60.5534 11.8652 60.7812 11.7695 60.9453 11.6602C61.1094 11.5462 61.2347 11.4391 61.3213 11.3389V9.11035H59.0176V8.04395H62.6338ZM71.1445 11.9268V13H65.874V11.9268H71.1445ZM66.1406 3.04688V13H64.8213V3.04688H66.1406ZM70.4473 7.32617V8.39941H65.874V7.32617H70.4473ZM71.0762 3.04688V4.12695H65.874V3.04688H71.0762Z" fill="url(#paint0_linear_12_2)"/>
<path d="M12.1914 11.9268H13.1914V10.9268H12.1914V11.9268ZM12.1914 13V14H13.1914V13H12.1914ZM7.21484 13H6.21484V14H7.21484V13ZM7.21484 11.9268V10.9268H6.21484V11.9268H7.21484ZM7.47461 3.04688H8.47461V2.04688H7.47461V3.04688ZM7.47461 13V14H8.47461V13H7.47461ZM6.15527 13H5.15527V14H6.15527V13ZM6.15527 3.04688V2.04688H5.15527V3.04688H6.15527ZM11.1914 11.9268V13H13.1914V11.9268H11.1914ZM12.1914 12H7.21484V14H12.1914V12ZM8.21484 13V11.9268H6.21484V13H8.21484ZM7.21484 12.9268H12.1914V10.9268H7.21484V12.9268ZM6.47461 3.04688V13H8.47461V3.04688H6.47461ZM7.47461 12H6.15527V14H7.47461V12ZM7.15527 13V3.04688H5.15527V13H7.15527ZM6.15527 4.04688H7.47461V2.04688H6.15527V4.04688ZM20.0254 11.9268H21.0254V10.9268H20.0254V11.9268ZM20.0254 13V14H21.0254V13H20.0254ZM14.7549 13H13.7549V14H14.7549V13ZM14.7549 11.9268V10.9268H13.7549V11.9268H14.7549ZM15.0215 3.04688H16.0215V2.04688H15.0215V3.04688ZM15.0215 13V14H16.0215V13H15.0215ZM13.7021 13H12.7021V14H13.7021V13ZM13.7021 3.04688V2.04688H12.7021V3.04688H13.7021ZM19.3281 7.32617H20.3281V6.32617H19.3281V7.32617ZM19.3281 8.39941V9.39941H20.3281V8.39941H19.3281ZM14.7549 8.39941H13.7549V9.39941H14.7549V8.39941ZM14.7549 7.32617V6.32617H13.7549V7.32617H14.7549ZM19.957 3.04688H20.957V2.04688H19.957V3.04688ZM19.957 4.12695V5.12695H20.957V4.12695H19.957ZM14.7549 4.12695H13.7549V5.12695H14.7549V4.12695ZM14.7549 3.04688V2.04688H13.7549V3.04688H14.7549ZM19.0254 11.9268V13H21.0254V11.9268H19.0254ZM20.0254 12H14.7549V14H20.0254V12ZM15.7549 13V11.9268H13.7549V13H15.7549ZM14.7549 12.9268H20.0254V10.9268H14.7549V12.9268ZM14.0215 3.04688V13H16.0215V3.04688H14.0215ZM15.0215 12H13.7021V14H15.0215V12ZM14.7021 13V3.04688H12.7021V13H14.7021ZM13.7021 4.04688H15.0215V2.04688H13.7021V4.04688ZM18.3281 7.32617V8.39941H20.3281V7.32617H18.3281ZM19.3281 7.39941H14.7549V9.39941H19.3281V7.39941ZM15.7549 8.39941V7.32617H13.7549V8.39941H15.7549ZM14.7549 8.32617H19.3281V6.32617H14.7549V8.32617ZM18.957 3.04688V4.12695H20.957V3.04688H18.957ZM19.957 3.12695H14.7549V5.12695H19.957V3.12695ZM15.7549 4.12695V3.04688H13.7549V4.12695H15.7549ZM14.7549 4.04688H19.957V2.04688H14.7549V4.04688ZM25.207 8.34473V9.34473H25.5153L25.77 9.17121L25.207 8.34473ZM22.6846 8.34473L21.6847 8.35763L21.6974 9.34473H22.6846V8.34473ZM22.6709 7.28516V6.28516H21.6579L21.671 7.29806L22.6709 7.28516ZM26.6084 6.54688L25.7739 5.99581L25.7714 5.99963L26.6084 6.54688ZM26.6357 4.79688L25.7738 5.30389L25.7797 5.31392L25.7858 5.32381L26.6357 4.79688ZM26 4.29102L25.639 5.22358L25.648 5.22707L25.6571 5.23037L26 4.29102ZM22.9785 4.12695V3.12695H21.9785V4.12695H22.9785ZM22.9785 13V14H23.9785V13H22.9785ZM21.6592 13H20.6592V14H21.6592V13ZM21.6592 3.04688V2.04688H20.6592V3.04688H21.6592ZM26.2871 3.2041L26.0342 4.17166L26.0446 4.17424L26.2871 3.2041ZM27.3057 3.68262L26.6873 4.46849L26.6944 4.47407L26.7016 4.47952L27.3057 3.68262ZM27.8525 6.81348L28.6953 7.35188L28.6986 7.3466L27.8525 6.81348ZM26.9775 7.62012L26.4883 6.74796L26.4837 6.75056L26.9775 7.62012ZM25.6787 8.02344L25.5603 7.03047L25.3177 7.05941L25.1157 7.19696L25.6787 8.02344ZM22.165 13L21.3436 12.4297L20.2534 14H22.165V13ZM22.9102 11.9268V10.9268H22.387L22.0887 11.3565L22.9102 11.9268ZM26.2119 11.708L25.7702 10.8108L25.7647 10.8136L26.2119 11.708ZM26.8887 11.0928L27.7514 11.5985L27.7551 11.5921L26.8887 11.0928ZM26.9229 9.18555L26.0254 9.62667L26.9229 9.18555ZM23.3271 8.34473L22.3272 8.33182L22.3142 9.34473H23.3271V8.34473ZM23.3408 7.28516V6.28516H22.3536L22.3409 7.27225L23.3408 7.28516ZM25.9111 7.28516L26.718 6.69442L26.4184 6.28516H25.9111V7.28516ZM26.1914 7.66797L25.3845 8.25871L25.6531 8.62549L26.106 8.66432L26.1914 7.66797ZM27.4082 8.07812L26.8355 8.89792L26.8431 8.90316L27.4082 8.07812ZM28.167 8.95312L27.268 9.39112L27.2726 9.40034L28.167 8.95312ZM28.0234 11.7012L27.1805 11.1631L27.179 11.1655L28.0234 11.7012ZM26.8818 12.6719L27.288 13.5857L27.295 13.5825L26.8818 12.6719ZM25.207 7.34473H22.6846V9.34473H25.207V7.34473ZM23.6845 8.33182L23.6708 7.27225L21.671 7.29806L21.6847 8.35763L23.6845 8.33182ZM22.6709 8.28516H24.9609V6.28516H22.6709V8.28516ZM24.9609 8.28516C25.4506 8.28516 25.9266 8.20253 26.3637 8.00512L25.5406 6.18238C25.4126 6.24018 25.2278 6.28516 24.9609 6.28516V8.28516ZM26.3637 8.00512C26.8027 7.80686 27.1764 7.50553 27.4454 7.09412L25.7714 5.99963C25.7305 6.06218 25.6667 6.12544 25.5406 6.18238L26.3637 8.00512ZM27.4429 7.09794C27.7258 6.66949 27.8477 6.1841 27.8477 5.68555H25.8477C25.8477 5.85236 25.81 5.94118 25.7739 5.99581L27.4429 7.09794ZM27.8477 5.68555C27.8477 5.19951 27.7543 4.70328 27.4856 4.26994L25.7858 5.32381C25.7997 5.3462 25.8477 5.44241 25.8477 5.68555H27.8477ZM27.4977 4.28986C27.2277 3.83094 26.8172 3.52479 26.3429 3.35166L25.6571 5.23037C25.7571 5.26688 25.7703 5.29797 25.7738 5.30389L27.4977 4.28986ZM26.361 3.35845C25.9243 3.18941 25.4307 3.12695 24.9199 3.12695V5.12695C25.2841 5.12695 25.5106 5.17388 25.639 5.22358L26.361 3.35845ZM24.9199 3.12695H22.9785V5.12695H24.9199V3.12695ZM21.9785 4.12695V13H23.9785V4.12695H21.9785ZM22.9785 12H21.6592V14H22.9785V12ZM22.6592 13V3.04688H20.6592V13H22.6592ZM21.6592 4.04688H24.9199V2.04688H21.6592V4.04688ZM24.9199 4.04688C25.3638 4.04688 25.7322 4.09266 26.0342 4.1716L26.54 2.2366C26.0399 2.10591 25.4968 2.04688 24.9199 2.04688V4.04688ZM26.0446 4.17424C26.3316 4.246 26.5373 4.35047 26.6873 4.46849L27.9241 2.89675C27.518 2.57726 27.0447 2.36272 26.5296 2.23396L26.0446 4.17424ZM26.7016 4.47952C26.8447 4.58805 26.9533 4.72398 27.0324 4.90441L28.8641 4.10145C28.6515 3.61652 28.3317 3.20557 27.9098 2.88571L26.7016 4.47952ZM27.0324 4.90441C27.1095 5.08041 27.167 5.33541 27.167 5.69922H29.167C29.167 5.13334 29.0786 4.59081 28.8641 4.10145L27.0324 4.90441ZM27.167 5.69922C27.167 5.92924 27.1111 6.11437 27.0065 6.28036L28.6986 7.3466C29.0133 6.84722 29.167 6.28951 29.167 5.69922H27.167ZM27.0098 6.27509C26.8974 6.45104 26.7332 6.61057 26.4883 6.74797L27.4668 8.49226C27.9693 8.21039 28.3884 7.83217 28.6952 7.35187L27.0098 6.27509ZM26.4837 6.75056C26.249 6.88386 25.9481 6.98422 25.5603 7.03047L25.7971 9.0164C26.4028 8.94417 26.9678 8.77564 27.4714 8.48968L26.4837 6.75056ZM25.1157 7.19696L24.6441 7.51825L25.77 9.17121L26.2417 8.84992L25.1157 7.19696ZM25.1455 12H22.165V14H25.1455V12ZM22.9865 13.5703L23.7316 12.4971L22.0887 11.3565L21.3436 12.4297L22.9865 13.5703ZM22.9102 12.9268H25.1455V10.9268H22.9102V12.9268ZM25.1455 12.9268C25.6771 12.9268 26.1947 12.8346 26.6591 12.6024L25.7647 10.8136C25.6458 10.873 25.4525 10.9268 25.1455 10.9268V12.9268ZM26.6536 12.6052C27.1112 12.3799 27.4897 12.0449 27.7514 11.5985L26.026 10.5871C25.9778 10.6693 25.9051 10.7444 25.7702 10.8108L26.6536 12.6052ZM27.7551 11.5921C28.0118 11.1467 28.1211 10.6516 28.1211 10.1426H26.1211C26.1211 10.3628 26.0755 10.5011 26.0222 10.5935L27.7551 11.5921ZM28.1211 10.1426C28.1211 9.65529 28.0338 9.17872 27.8203 8.74443L26.0254 9.62667C26.0763 9.73014 26.1211 9.89158 26.1211 10.1426H28.1211ZM27.8203 8.74443C27.5876 8.27104 27.22 7.91257 26.7594 7.67486L25.8421 9.4521C25.9467 9.50605 25.9938 9.5623 26.0254 9.62667L27.8203 8.74443ZM26.7594 7.67486C26.2895 7.4323 25.7525 7.34473 25.207 7.34473V9.34473C25.5548 9.34473 25.747 9.40298 25.8421 9.4521L26.7594 7.67486ZM25.207 7.34473H23.3271V9.34473H25.207V7.34473ZM24.3271 8.35763L24.3407 7.29806L22.3409 7.27225L22.3272 8.33182L24.3271 8.35763ZM23.3408 8.28516H25.9111V6.28516H23.3408V8.28516ZM25.1043 7.8759L25.3845 8.25871L26.9983 7.07723L26.718 6.69442L25.1043 7.8759ZM26.106 8.66432C26.4417 8.69309 26.6713 8.7832 26.8355 8.89788L27.9809 7.25837C27.4797 6.90821 26.8982 6.72488 26.2768 6.67162L26.106 8.66432ZM26.8431 8.90316C27.0358 9.03514 27.1723 9.19459 27.268 9.39109L29.066 8.51516C28.8154 8.00072 28.446 7.57684 27.9733 7.2531L26.8431 8.90316ZM27.2726 9.40034C27.3756 9.60631 27.4336 9.84341 27.4336 10.1289H29.4336C29.4336 9.55763 29.3139 9.01088 29.0614 8.50591L27.2726 9.40034ZM27.4336 10.1289C27.4336 10.6001 27.3309 10.9276 27.1805 11.1631L28.8664 12.2392C29.2629 11.618 29.4336 10.8973 29.4336 10.1289H27.4336ZM27.179 11.1655C27.0224 11.4123 26.7979 11.6118 26.4687 11.7612L27.295 13.5825C27.9501 13.2853 28.4867 12.8377 28.8678 12.2369L27.179 11.1655ZM26.4757 11.7581C26.1377 11.9083 25.703 12 25.1455 12V14C25.9187 14 26.6416 13.873 27.288 13.5857L26.4757 11.7581ZM36.7051 11.9268H37.7051V10.9268H36.7051V11.9268ZM36.7051 13V14H37.7051V13H36.7051ZM31.4346 13H30.4346V14H31.4346V13ZM31.4346 11.9268V10.9268H30.4346V11.9268H31.4346ZM31.7012 3.04688H32.7012V2.04688H31.7012V3.04688ZM31.7012 13V14H32.7012V13H31.7012ZM30.3818 13H29.3818V14H30.3818V13ZM30.3818 3.04688V2.04688H29.3818V3.04688H30.3818ZM36.0078 7.32617H37.0078V6.32617H36.0078V7.32617ZM36.0078 8.39941V9.39941H37.0078V8.39941H36.0078ZM31.4346 8.39941H30.4346V9.39941H31.4346V8.39941ZM31.4346 7.32617V6.32617H30.4346V7.32617H31.4346ZM36.6367 3.04688H37.6367V2.04688H36.6367V3.04688ZM36.6367 4.12695V5.12695H37.6367V4.12695H36.6367ZM31.4346 4.12695H30.4346V5.12695H31.4346V4.12695ZM31.4346 3.04688V2.04688H30.4346V3.04688H31.4346ZM35.7051 11.9268V13H37.7051V11.9268H35.7051ZM36.7051 12H31.4346V14H36.7051V12ZM32.4346 13V11.9268H30.4346V13H32.4346ZM31.4346 12.9268H36.7051V10.9268H31.4346V12.9268ZM30.7012 3.04688V13H32.7012V3.04688H30.7012ZM31.7012 12H30.3818V14H31.7012V12ZM31.3818 13V3.04688H29.3818V13H31.3818ZM30.3818 4.04688H31.7012V2.04688H30.3818V4.04688ZM35.0078 7.32617V8.39941H37.0078V7.32617H35.0078ZM36.0078 7.39941H31.4346V9.39941H36.0078V7.39941ZM32.4346 8.39941V7.32617H30.4346V8.39941H32.4346ZM31.4346 8.32617H36.0078V6.32617H31.4346V8.32617ZM35.6367 3.04688V4.12695H37.6367V3.04688H35.6367ZM36.6367 3.12695H31.4346V5.12695H36.6367V3.12695ZM32.4346 4.12695V3.04688H30.4346V4.12695H32.4346ZM31.4346 4.04688H36.6367V2.04688H31.4346V4.04688ZM39.3506 9.09668H38.3506V10.0967H39.3506V9.09668ZM39.3506 8.02344V7.02344H38.3506V8.02344H39.3506ZM43.958 7.09375L43.0691 6.63543L43.0636 6.64654L43.958 7.09375ZM43.958 5.13184L43.0581 5.56814L43.0636 5.57905L43.958 5.13184ZM43.2607 4.40723L42.7553 5.27016L42.7646 5.27547L43.2607 4.40723ZM39.6582 4.12695V3.12695H38.6582V4.12695H39.6582ZM39.6582 13V14H40.6582V13H39.6582ZM38.3389 13H37.3389V14H38.3389V13ZM38.3389 3.04688V2.04688H37.3389V3.04688H38.3389ZM45.0996 4.5166L44.2361 5.02101L44.2383 5.02475L45.0996 4.5166ZM45.0996 7.71582L45.9586 8.22776L45.0996 7.71582ZM43.917 8.74805L44.3254 9.66089L44.332 9.65787L43.917 8.74805ZM42.0098 8.09668H39.3506V10.0967H42.0098V8.09668ZM40.3506 9.09668V8.02344H38.3506V9.09668H40.3506ZM39.3506 9.02344H42.0098V7.02344H39.3506V9.02344ZM42.0098 9.02344C42.6192 9.02344 43.2096 8.92816 43.7181 8.66663L42.8034 6.88806C42.6739 6.95465 42.4303 7.02344 42.0098 7.02344V9.02344ZM43.7181 8.66663C44.2062 8.41562 44.602 8.04177 44.8524 7.54096L43.0636 6.64654C43.0223 6.72907 42.9533 6.81094 42.8034 6.88806L43.7181 8.66663ZM44.8468 7.55204C45.0798 7.10008 45.1836 6.60655 45.1836 6.0957H43.1836C43.1836 6.33226 43.1369 6.50408 43.0692 6.63546L44.8468 7.55204ZM45.1836 6.0957C45.1836 5.6013 45.0734 5.1266 44.8524 4.68462L43.0636 5.57905C43.1434 5.73863 43.1836 5.90651 43.1836 6.0957H45.1836ZM44.8578 4.69556C44.6154 4.19547 44.2328 3.81093 43.7569 3.53898L42.7646 5.27547C42.9267 5.36811 43.009 5.46664 43.0582 5.56811L44.8578 4.69556ZM43.7661 3.54434C43.2451 3.23918 42.6359 3.12695 42.0098 3.12695V5.12695C42.4136 5.12695 42.6383 5.20157 42.7553 5.27011L43.7661 3.54434ZM42.0098 3.12695H39.6582V5.12695H42.0098V3.12695ZM38.6582 4.12695V13H40.6582V4.12695H38.6582ZM39.6582 12H38.3389V14H39.6582V12ZM39.3389 13V3.04688H37.3389V13H39.3389ZM38.3389 4.04688H42.0098V2.04688H38.3389V4.04688ZM42.0098 4.04688C42.6506 4.04688 43.1238 4.15798 43.4698 4.33095L44.3642 2.5421C43.6711 2.19554 42.8728 2.04688 42.0098 2.04688V4.04688ZM43.4698 4.33095C43.8319 4.51199 44.074 4.74339 44.2361 5.021L45.9631 4.0122C45.5875 3.36924 45.0412 2.88059 44.3642 2.5421L43.4698 4.33095ZM44.2383 5.02475C44.4066 5.3099 44.5029 5.65251 44.5029 6.08203H46.5029C46.5029 5.33577 46.3304 4.63477 45.9609 4.00845L44.2383 5.02475ZM44.5029 6.08203C44.5029 6.57853 44.3992 6.93771 44.2406 7.20388L45.9586 8.22776C46.3378 7.59159 46.5029 6.86158 46.5029 6.08203H44.5029ZM44.2406 7.20388C44.085 7.46503 43.8534 7.67792 43.502 7.83823L44.332 9.65787C45.0196 9.34422 45.5765 8.86895 45.9586 8.22776L44.2406 7.20388ZM43.5086 7.83523C43.1518 7.99487 42.664 8.09668 42.0098 8.09668V10.0967C42.8594 10.0967 43.6432 9.96606 44.3254 9.66086L43.5086 7.83523ZM49.9121 3.92871L50.852 4.27011L50.908 4.11594L50.9118 3.95196L49.9121 3.92871ZM46.6172 13V14H47.3179L47.5571 13.3414L46.6172 13ZM45.2705 13L44.3361 12.6438L43.8191 14H45.2705V13ZM49.0645 3.04688V2.04688H48.3754L48.13 2.69069L49.0645 3.04688ZM49.9326 3.04688L50.9323 3.07012L50.9561 2.04688H49.9326V3.04688ZM52.6738 13L51.7341 13.342L51.9736 14H52.6738V13ZM49.3721 3.92871L48.3723 3.95196L48.3762 4.11628L48.4324 4.27074L49.3721 3.92871ZM49.3516 3.04688V2.04688H48.328L48.3518 3.07012L49.3516 3.04688ZM50.2197 3.04688L51.1537 2.68957L50.9078 2.04688H50.2197V3.04688ZM54.0273 13V14H55.4806L54.9613 12.6427L54.0273 13ZM52.5029 9.31543H53.5029V8.31543H52.5029V9.31543ZM52.5029 10.3955V11.3955H53.5029V10.3955H52.5029ZM46.9111 10.3955H45.9111V11.3955H46.9111V10.3955ZM46.9111 9.31543V8.31543H45.9111V9.31543H46.9111ZM48.9722 3.58731L45.6773 12.6586L47.5571 13.3414L50.852 4.27011L48.9722 3.58731ZM46.6172 12H45.2705V14H46.6172V12ZM46.2049 13.3562L49.9989 3.40306L48.13 2.69069L44.3361 12.6438L46.2049 13.3562ZM49.0645 4.04688H49.9326V2.04688H49.0645V4.04688ZM48.9329 3.02363L48.9124 3.90546L50.9118 3.95196L50.9323 3.07012L48.9329 3.02363ZM53.6135 12.658L50.3118 3.58668L48.4324 4.27074L51.7341 13.342L53.6135 12.658ZM50.3718 3.90546L50.3513 3.02363L48.3518 3.07012L48.3723 3.95196L50.3718 3.90546ZM49.3516 4.04688H50.2197V2.04688H49.3516V4.04688ZM49.2857 3.40418L53.0934 13.3573L54.9613 12.6427L51.1537 2.68957L49.2857 3.40418ZM54.0273 12H52.6738V14H54.0273V12ZM51.5029 9.31543V10.3955H53.5029V9.31543H51.5029ZM52.5029 9.39551H46.9111V11.3955H52.5029V9.39551ZM47.9111 10.3955V9.31543H45.9111V10.3955H47.9111ZM46.9111 10.3154H52.5029V8.31543H46.9111V10.3154ZM62.6338 8.04395H63.6338V7.04395H62.6338V8.04395ZM62.6338 11.6875L63.4626 12.247L63.6338 11.9934V11.6875H62.6338ZM62.0459 12.3027L62.6848 13.0721L62.6924 13.0656L62.0459 12.3027ZM60.9316 12.8906L61.2616 13.8346L61.2668 13.8328L60.9316 12.8906ZM57.4385 12.8223L57.0485 13.7432L57.0586 13.7473L57.4385 12.8223ZM56.1191 11.8926L55.3758 12.5616L55.3837 12.5702L56.1191 11.8926ZM55.2578 10.4023L54.3113 10.7252L54.3144 10.734L55.2578 10.4023ZM55.2168 5.64453L54.2602 5.35307L54.2581 5.35993L55.2168 5.64453ZM55.9961 4.16113L56.7608 4.80554L56.7643 4.80132L55.9961 4.16113ZM57.2539 3.23145L57.6427 4.15279L57.6499 4.14972L57.2539 3.23145ZM60.8701 3.30664L60.4102 4.19469L60.4197 4.19948L60.8701 3.30664ZM62.0732 4.38672L61.2248 4.91598L61.2285 4.92197L62.0732 4.38672ZM62.6338 5.95898V6.95898H63.783L63.6242 5.82079L62.6338 5.95898ZM61.3145 5.95898L60.3277 6.12136L60.4656 6.95898H61.3145V5.95898ZM60.959 4.97461L60.0956 5.47934L60.1015 5.48911L60.959 4.97461ZM60.2139 4.26367L59.723 5.13497L59.7324 5.14015L60.2139 4.26367ZM57.7666 4.24316L57.3194 3.34874L57.7666 4.24316ZM56.4404 6.10938L55.4691 5.8715L55.4669 5.88089L56.4404 6.10938ZM56.4814 9.94434L55.5217 10.2255L55.5244 10.2343L56.4814 9.94434ZM57.0625 11.0996L56.2762 11.7174L56.2805 11.7229L57.0625 11.0996ZM57.958 11.8174L57.5299 12.7211L57.5345 12.7233L57.958 11.8174ZM60.2617 11.9473L60.5184 12.9138L60.5255 12.9119L60.5325 12.9099L60.2617 11.9473ZM60.9453 11.6602L61.5 12.4922L61.5079 12.4869L61.5157 12.4815L60.9453 11.6602ZM61.3213 11.3389L62.0781 11.9925L62.3213 11.7109V11.3389H61.3213ZM61.3213 9.11035H62.3213V8.11035H61.3213V9.11035ZM59.0176 9.11035H58.0176V10.1104H59.0176V9.11035ZM59.0176 8.04395V7.04395H58.0176V8.04395H59.0176ZM61.6338 8.04395V11.6875H63.6338V8.04395H61.6338ZM61.8049 11.128C61.7543 11.203 61.635 11.3401 61.3994 11.5398L62.6924 13.0656C62.9945 12.8096 63.2672 12.5366 63.4626 12.247L61.8049 11.128ZM61.407 11.5334C61.2587 11.6566 61.0042 11.8034 60.5965 11.9485L61.2668 13.8328C61.807 13.6406 62.2953 13.3955 62.6848 13.072L61.407 11.5334ZM60.6017 11.9466C60.277 12.0601 59.7937 12.1367 59.1133 12.1367V14.1367C59.9185 14.1367 60.6475 14.0493 61.2616 13.8346L60.6017 11.9466ZM59.1133 12.1367C58.6246 12.1367 58.1969 12.0527 57.8184 11.8972L57.0586 13.7473C57.7009 14.0111 58.3897 14.1367 59.1133 14.1367V12.1367ZM57.8284 11.9014C57.4543 11.743 57.1321 11.5162 56.8546 11.215L55.3837 12.5702C55.8535 13.0801 56.411 13.4732 57.0486 13.7431L57.8284 11.9014ZM56.8624 11.2236C56.5917 10.9227 56.3678 10.5445 56.2012 10.0707L54.3144 10.734C54.558 11.4269 54.9083 12.0421 55.3758 12.5615L56.8624 11.2236ZM56.2043 10.0795C56.0454 9.61365 55.957 9.06016 55.957 8.40625H53.957C53.957 9.23802 54.0692 10.0153 54.3114 10.7252L56.2043 10.0795ZM55.957 8.40625V7.63379H53.957V8.40625H55.957ZM55.957 7.63379C55.957 6.96689 56.035 6.40236 56.1754 5.92913L54.2581 5.35993C54.0523 6.05337 53.957 6.81502 53.957 7.63379H55.957ZM56.1734 5.93599C56.3175 5.46284 56.5183 5.09334 56.7608 4.80553L55.2314 3.51673C54.7903 4.04013 54.4715 4.65956 54.2602 5.35307L56.1734 5.93599ZM56.7643 4.80132C57.0029 4.51507 57.2916 4.30096 57.6427 4.15276L56.8651 2.31013C56.2228 2.5812 55.6729 2.98688 55.2279 3.52095L56.7643 4.80132ZM57.6499 4.14972C58.0004 3.99858 58.4313 3.91016 58.9629 3.91016V1.91016C58.2093 1.91016 57.5009 2.03592 56.858 2.31317L57.6499 4.14972ZM58.9629 3.91016C59.6137 3.91016 60.0804 4.02383 60.4103 4.19463L61.33 2.41865C60.639 2.0608 59.8342 1.91016 58.9629 1.91016V3.91016ZM60.4197 4.19948C60.782 4.38221 61.0408 4.62096 61.2248 4.91596L62.9217 3.85748C62.5315 3.23191 61.9882 2.7506 61.3205 2.4138L60.4197 4.19948ZM61.2285 4.92197C61.4373 5.25138 61.5793 5.63775 61.6434 6.09718L63.6242 5.82079C63.5242 5.10443 63.2925 4.44263 62.9179 3.85147L61.2285 4.92197ZM62.6338 4.95898H61.3145V6.95898H62.6338V4.95898ZM62.3012 5.79661C62.2226 5.3192 62.0627 4.8705 61.8165 4.46011L60.1015 5.48911C60.2107 5.67117 60.2878 5.87872 60.3277 6.12136L62.3012 5.79661ZM61.8223 4.46991C61.5509 4.00565 61.165 3.64518 60.6953 3.3872L59.7324 5.14015C59.9099 5.23763 60.0207 5.35112 60.0957 5.47931L61.8223 4.46991ZM60.7047 3.39242C60.1856 3.09997 59.5838 2.99023 58.9629 2.99023V4.99023C59.3628 4.99023 59.595 5.06279 59.723 5.13492L60.7047 3.39242ZM58.9629 2.99023C58.3811 2.99023 57.8228 3.09703 57.3194 3.34874L58.2138 5.13759C58.3849 5.05206 58.6241 4.99023 58.9629 4.99023V2.99023ZM57.3194 3.34874C56.83 3.59342 56.4244 3.94719 56.1117 4.39671L57.7535 5.53884C57.8783 5.35945 58.0287 5.23015 58.2138 5.13759L57.3194 3.34874ZM56.1117 4.39671C55.8103 4.83003 55.602 5.32884 55.4691 5.87151L57.4117 6.34724C57.4976 5.99668 57.6175 5.73442 57.7535 5.53884L56.1117 4.39671ZM55.4669 5.88089C55.3411 6.41675 55.2832 6.99894 55.2832 7.62012H57.2832C57.2832 7.1202 57.3301 6.69523 57.414 6.33786L55.4669 5.88089ZM55.2832 7.62012V8.40625H57.2832V7.62012H55.2832ZM55.2832 8.40625C55.2832 9.0554 55.3577 9.66541 55.5218 10.2255L57.4411 9.66322C57.3408 9.32092 57.2832 8.90554 57.2832 8.40625H55.2832ZM55.5244 10.2343C55.6914 10.7855 55.9374 11.2862 56.2762 11.7174L57.8488 10.4818C57.6863 10.275 57.5449 10.0056 57.4385 9.65433L55.5244 10.2343ZM56.2805 11.7229C56.6214 12.1506 57.039 12.4886 57.5299 12.7211L58.3861 10.9136C58.1843 10.8181 58.0049 10.6776 57.8445 10.4763L56.2805 11.7229ZM57.5345 12.7233C58.0301 12.955 58.5639 13.0635 59.1201 13.0635V11.0635C58.8287 11.0635 58.5878 11.0079 58.3815 10.9115L57.5345 12.7233ZM59.1201 13.0635C59.6339 13.0635 60.1102 13.0222 60.5184 12.9138L60.005 10.9808C59.8299 11.0273 59.5451 11.0635 59.1201 11.0635V13.0635ZM60.5325 12.9099C60.877 12.813 61.2151 12.6821 61.5 12.4922L60.3906 10.8281C60.3474 10.8569 60.2298 10.9174 59.991 10.9846L60.5325 12.9099ZM61.5157 12.4815C61.7176 12.3413 61.9165 12.1797 62.0781 11.9925L60.5645 10.6852C60.5529 10.6986 60.5011 10.7511 60.3749 10.8388L61.5157 12.4815ZM62.3213 11.3389V9.11035H60.3213V11.3389H62.3213ZM61.3213 8.11035H59.0176V10.1104H61.3213V8.11035ZM60.0176 9.11035V8.04395H58.0176V9.11035H60.0176ZM59.0176 9.04395H62.6338V7.04395H59.0176V9.04395ZM71.1445 11.9268H72.1445V10.9268H71.1445V11.9268ZM71.1445 13V14H72.1445V13H71.1445ZM65.874 13H64.874V14H65.874V13ZM65.874 11.9268V10.9268H64.874V11.9268H65.874ZM66.1406 3.04688H67.1406V2.04688H66.1406V3.04688ZM66.1406 13V14H67.1406V13H66.1406ZM64.8213 13H63.8213V14H64.8213V13ZM64.8213 3.04688V2.04688H63.8213V3.04688H64.8213ZM70.4473 7.32617H71.4473V6.32617H70.4473V7.32617ZM70.4473 8.39941V9.39941H71.4473V8.39941H70.4473ZM65.874 8.39941H64.874V9.39941H65.874V8.39941ZM65.874 7.32617V6.32617H64.874V7.32617H65.874ZM71.0762 3.04688H72.0762V2.04688H71.0762V3.04688ZM71.0762 4.12695V5.12695H72.0762V4.12695H71.0762ZM65.874 4.12695H64.874V5.12695H65.874V4.12695ZM65.874 3.04688V2.04688H64.874V3.04688H65.874ZM70.1445 11.9268V13H72.1445V11.9268H70.1445ZM71.1445 12H65.874V14H71.1445V12ZM66.874 13V11.9268H64.874V13H66.874ZM65.874 12.9268H71.1445V10.9268H65.874V12.9268ZM65.1406 3.04688V13H67.1406V3.04688H65.1406ZM66.1406 12H64.8213V14H66.1406V12ZM65.8213 13V3.04688H63.8213V13H65.8213ZM64.8213 4.04688H66.1406V2.04688H64.8213V4.04688ZM69.4473 7.32617V8.39941H71.4473V7.32617H69.4473ZM70.4473 7.39941H65.874V9.39941H70.4473V7.39941ZM66.874 8.39941V7.32617H64.874V8.39941H66.874ZM65.874 8.32617H70.4473V6.32617H65.874V8.32617ZM70.0762 3.04688V4.12695H72.0762V3.04688H70.0762ZM71.0762 3.12695H65.874V5.12695H71.0762V3.12695ZM66.874 4.12695V3.04688H64.874V4.12695H66.874ZM65.874 4.04688H71.0762V2.04688H65.874V4.04688Z" fill="url(#paint1_linear_12_2)"/>
</g>
<defs>
<filter id="filter0_d_12_2" x="0.155273" y="0.910156" width="76.9893" height="22.2266" filterUnits="userSpaceOnUse" color-interpolation-filters="sRGB">
<feFlood flood-opacity="0" result="BackgroundImageFix"/>
<feColorMatrix in="SourceAlpha" type="matrix" values="0 0 0 0 0 0 0 0 0 0 0 0 0 0 0 0 0 0 127 0" result="hardAlpha"/>
<feOffset dy="4"/>
<feGaussianBlur stdDeviation="3"/>
<feComposite in2="hardAlpha" operator="out"/>
<feColorMatrix type="matrix" values="0 0 0 0 1 0 0 0 0 0.9625 0 0 0 0 0.9625 0 0 0 0.33 0"/>
<feBlend mode="normal" in2="BackgroundImageFix" result="effect1_dropShadow_12_2"/>
<feBlend mode="normal" in="SourceGraphic" in2="effect1_dropShadow_12_2" result="shape"/>
</filter>
<linearGradient id="paint0_linear_12_2" x1="8.5" y1="6.3731e-06" x2="72" y2="13" gradientUnits="userSpaceOnUse">
<stop stop-color="#1C75DB"/>
<stop offset="1" stop-color="white"/>
</linearGradient>
<linearGradient id="paint1_linear_12_2" x1="5" y1="3.5" x2="72.5" y2="13" gradientUnits="userSpaceOnUse">
<stop stop-color="#086CE1"/>
<stop offset="1" stop-color="white"/>
</linearGradient>
</defs>
</svg>
